HIERARCHY
ROOT Hips
{
	OFFSET	0.000000	0.000000	0.000000
	CHANNELS 6 Xposition Yposition Zposition Zrotation Xrotation Yrotation
	JOINT LeftHip
	{
		OFFSET	4.740440	-3.195970	-0.322709
		CHANNELS 3 Zrotation Xrotation Yrotation
		JOINT LeftKnee
		{
			OFFSET	-1.605680	-15.592300	1.005510
			CHANNELS 3 Zrotation Xrotation Yrotation
			JOINT LeftAnkle
			{
				OFFSET	-0.632401	-16.421000	-1.413730
				CHANNELS 3 Zrotation Xrotation Yrotation
				End Site
				{
					OFFSET	0.008423	-2.933000	-1.776750
				}
			}
		}
	}
	JOINT RightHip
	{
		OFFSET	-4.740440	-3.195970	-0.322709
		CHANNELS 3 Zrotation Xrotation Yrotation
		JOINT RightKnee
		{
			OFFSET	1.605680	-15.592300	1.005510
			CHANNELS 3 Zrotation Xrotation Yrotation
			JOINT RightAnkle
			{
				OFFSET	0.632401	-16.421000	-1.413730
				CHANNELS 3 Zrotation Xrotation Yrotation
				End Site
				{
					OFFSET	-0.008423	-2.933000	-1.776750
				}
			}
		}
	}
	JOINT Chest
	{
		OFFSET	0.000000	3.468200	0.078401
		CHANNELS 3 Zrotation Xrotation Yrotation
		JOINT LeftCollar
		{
			OFFSET	3.857650	15.070700	-0.011583
			CHANNELS 3 Zrotation Xrotation Yrotation
			JOINT LeftShoulder
			{
				OFFSET	3.979720	-1.940530	-0.165223
				CHANNELS 3 Zrotation Xrotation Yrotation
				JOINT LeftElbow
				{
					OFFSET	0.615844	-10.986600	-0.673886
					CHANNELS 3 Zrotation Xrotation Yrotation
					JOINT LeftWrist
					{
						OFFSET	0.826843	-10.854500	1.034220
						CHANNELS 3 Zrotation Xrotation Yrotation
						End Site
						{
							OFFSET	-1.679080	-8.456540	0.936217
						}
					}
				}
			}
		}
		JOINT RightCollar
		{
			OFFSET	-3.857650	15.070700	-0.011583
			CHANNELS 3 Zrotation Xrotation Yrotation
			JOINT RightShoulder
			{
				OFFSET	-3.979720	-1.940530	-0.165223
				CHANNELS 3 Zrotation Xrotation Yrotation
				JOINT RightElbow
				{
					OFFSET	-0.615845	-10.986600	-0.673886
					CHANNELS 3 Zrotation Xrotation Yrotation
					JOINT RightWrist
					{
						OFFSET	-0.826843	-10.854500	1.034220
						CHANNELS 3 Zrotation Xrotation Yrotation
						End Site
						{
							OFFSET	1.679080	-8.456540	0.936217
						}
					}
				}
			}
		}
		JOINT Neck
		{
			OFFSET	0.000000	15.101400	0.055730
			CHANNELS 3 Zrotation Xrotation Yrotation
			JOINT Head
			{
				OFFSET	0.000000	4.185120	1.488260
				CHANNELS 3 Zrotation Xrotation Yrotation
				End Site
				{
					OFFSET	0.000000	7.773420	-0.106016
				}
			}
		}
	}
}
MOTION
Frames:     16
Frame Time: 0.016667
-1.021060	37.609699	-2.193877	5.141476	-9.058746	12.834690	-0.097598	8.465327	0.287618	-5.444021	8.600962	15.212156	3.905226	-8.065402	2.673296	-13.375633	-6.255927	-4.913698	-1.589398	15.866451	4.879148	10.068435	0.337173	6.533761	-5.919057	8.693707	-4.354909	-2.232806	5.861785	1.391155	2.756458	-2.244348	3.839745	-0.476656	-11.466042	-8.524572	16.218399	9.186128	-16.626429	4.486632	5.654528	2.235259	-5.636746	-5.152840	4.028872	0.277583	-10.173656	12.654559	-18.751471	-3.002825	12.532026	2.918933	10.564737	-0.224462	0.975558	1.626161	-8.428430	
-1.003761	37.605087	-2.193479	5.107058	-9.063066	12.767636	-0.075240	8.406030	0.206458	-5.507701	8.715965	15.359159	3.929997	-8.146495	2.688864	-13.336805	-6.272964	-4.857258	-1.587636	15.910466	4.884904	10.063867	0.293198	6.538574	-5.867089	8.699796	-4.394323	-2.192721	5.819478	1.373735	2.693199	-2.227527	3.734732	-0.434446	-11.435623	-8.414995	16.195875	9.207585	-16.740349	4.525343	5.672165	2.177800	-5.693621	-5.205858	3.973040	0.312407	-10.122060	12.662014	-18.829838	-3.036609	12.458533	2.942514	10.588630	-0.216550	1.033842	1.640876	-8.569763	
-0.984259	37.599365	-2.178691	5.090996	-9.065107	12.738859	-0.064119	8.388961	0.191037	-5.564883	8.812381	15.400688	3.958895	-8.241040	2.705787	-13.318114	-6.280489	-4.831915	-1.587259	15.930306	4.886151	10.061807	0.273529	6.540692	-5.846043	8.700958	-4.401903	-2.177683	5.798755	1.379747	2.668720	-2.216896	3.685445	-0.392790	-11.384538	-8.454151	16.155130	9.195626	-16.706385	4.538822	5.681367	2.164097	-5.714480	-5.224892	3.954180	0.323903	-10.103950	12.650185	-18.871515	-3.076362	12.348908	2.962130	10.582923	-0.224554	1.026268	1.653456	-8.582149	
-0.964177	37.595638	-2.173401	5.033229	-9.072694	12.621461	-0.024585	8.356932	0.225870	-5.626762	8.917049	15.476589	3.987942	-8.335926	2.722745	-13.260978	-6.309051	-4.741227	-1.578107	15.993993	4.903477	10.055174	0.209714	6.547684	-5.759786	8.708672	-4.455437	-2.149282	5.722280	1.449195	2.594204	-2.180825	3.536458	-0.343212	-11.351263	-8.346194	16.123379	9.217857	-16.797602	4.560325	5.717523	2.194974	-5.782941	-5.295028	3.877883	0.357011	-10.050698	12.624849	-18.922581	-3.157749	12.360701	2.898941	10.562142	-0.104635	1.110450	1.692682	-8.708609	
-0.954383	37.593235	-2.169955	5.013172	-9.075107	12.578982	-0.011438	8.339816	0.225547	-5.657875	8.970134	15.517683	4.002270	-8.382671	2.730983	-13.250854	-6.318557	-4.719523	-1.568042	16.016363	4.920283	10.052801	0.186865	6.550191	-5.712697	8.715589	-4.524250	-2.167080	5.690983	1.528463	2.571948	-2.170620	3.496303	-0.318254	-11.324577	-8.417555	16.091618	9.233632	-16.739576	4.539019	5.723707	2.267513	-5.800964	-5.312108	3.853891	0.367244	-10.036052	12.610391	-18.992685	-3.187518	12.135532	2.847245	10.551307	-0.007165	1.146082	1.707336	-8.761851	
-0.927879	37.587379	-2.155334	4.957134	-9.082159	12.457996	0.025355	8.320791	0.285323	-5.733087	9.091666	15.569839	4.040931	-8.508466	2.754478	-13.228522	-6.352143	-4.630062	-1.526195	16.105669	4.940312	10.044250	0.104496	6.559233	-5.657753	8.706034	-4.466025	-2.127430	5.698272	1.407521	2.520559	-2.191479	3.466348	-0.267859	-11.289267	-8.352252	16.055502	9.256695	-16.787157	4.577499	5.736073	2.187365	-5.846049	-5.345405	3.810928	0.397381	-9.986127	12.558181	-19.037281	-3.248826	12.202863	2.826307	10.543133	0.014794	1.214230	1.716238	-8.903399	
-0.917803	37.585049	-2.148391	4.936703	-9.084664	12.412770	0.039454	8.318919	0.327772	-5.760466	9.136223	15.569796	4.056199	-8.558210	2.762477	-13.217422	-6.364585	-4.594715	-1.513445	16.133076	4.945910	10.041640	0.079291	6.562014	-5.604928	8.714622	-4.549973	-2.156380	5.681427	1.471032	2.504180	-2.202469	3.360826	-0.226469	-11.262265	-8.303823	16.066172	9.264825	-16.725510	4.553956	5.744331	2.268245	-5.868260	-5.366958	3.756907	0.412587	-9.968409	12.545526	-19.079487	-3.221275	12.194532	2.806283	10.468218	0.091953	1.209280	1.793943	-8.927351	
-0.890292	37.578747	-2.131050	4.878855	-9.091718	12.285849	0.078443	8.308167	0.426820	-5.836171	9.259904	15.587835	4.097472	-8.692107	2.786921	-13.178738	-6.391394	-4.526944	-1.493715	16.171343	4.993053	10.037308	0.037498	6.566617	-5.533227	8.710915	-4.538343	-2.138445	5.612796	1.442387	2.452610	-2.151325	3.381342	-0.195938	-11.238553	-8.320986	16.293568	9.226506	-16.659306	4.552493	5.740830	2.269954	-5.897921	-5.382074	3.757000	0.430614	-9.937744	12.500788	-19.128111	-3.211489	12.210308	2.804143	10.391008	0.168984	1.251938	1.869978	-9.114650	
-0.879275	37.576061	-2.124748	4.859099	-9.094008	12.243091	0.090981	8.299522	0.441523	-5.867652	9.310377	15.613973	4.113410	-8.743796	2.795642	-13.165020	-6.399657	-4.507691	-1.488670	16.171755	5.011889	10.037043	0.034826	6.566952	-5.505360	8.711152	-4.546296	-2.132541	5.605111	1.432653	2.432265	-2.157425	3.311075	-0.167712	-11.222113	-8.252234	16.401226	9.207445	-16.625708	4.564748	5.755764	2.264913	-5.924389	-5.404281	3.763915	0.438834	-9.924823	12.469193	-19.153509	-3.208452	12.212297	2.785051	10.381889	0.198160	1.252036	1.876018	-9.104064	
-0.844880	37.566532	-2.112690	4.794780	-9.101529	12.096450	0.132351	8.238540	0.439412	-5.980734	9.499460	15.760989	4.164716	-8.909903	2.823337	-13.120474	-6.421842	-4.463533	-1.477987	16.178410	5.100727	10.034886	0.014129	6.569196	-5.417223	8.710591	-4.559219	-2.141767	5.575130	1.476823	2.388756	-2.151431	3.345481	-0.147783	-11.324942	-8.359616	16.747402	9.229914	-16.577524	4.581898	5.770109	2.248602	-5.979501	-5.451346	3.723894	0.472505	-9.866288	12.420650	-19.233818	-3.214067	12.237826	2.724287	10.362839	0.300384	1.282182	1.872802	-9.172404	
-0.832478	37.562634	-2.109020	4.776212	-9.103704	12.056082	0.144774	8.208857	0.410579	-6.025226	9.574349	15.831799	4.183401	-8.970316	2.832907	-13.090259	-6.420618	-4.469615	-1.496899	16.191641	5.147025	10.032191	-0.011922	6.572071	-5.389048	8.711440	-4.572475	-2.139760	5.568327	1.472571	2.380453	-2.188579	3.304855	-0.129335	-11.347011	-8.280958	16.856409	9.211885	-16.567711	4.596848	5.788132	2.240793	-6.009388	-5.478328	3.716279	0.484119	-9.849434	12.402578	-19.263409	-3.211213	12.235640	2.700364	10.357594	0.346757	1.314142	1.882858	-9.232379	
-0.801355	37.553188	-2.096069	4.730524	-9.108986	11.951111	0.173169	8.153635	0.372227	-6.129264	9.744351	15.973579	4.229784	-9.119598	2.860614	-13.032615	-6.430091	-4.446881	-1.517669	16.221508	5.224762	10.027228	-0.060048	6.577458	-5.331057	8.710216	-4.567415	-2.083770	5.521768	1.430243	2.297457	-2.159689	3.380454	-0.194749	-11.465686	-8.456791	17.225849	9.142350	-16.495728	4.648527	5.813554	2.150238	-6.076879	-5.533026	3.694498	0.518584	-9.800393	12.372930	-19.353359	-3.211846	12.191234	2.661372	10.344391	0.403568	1.326402	1.847525	-9.315287	
-0.792119	37.552135	-2.092124	4.695052	-9.112842	11.887513	0.199906	8.149136	0.424947	-6.154425	9.783892	15.978444	4.243334	-9.163084	2.869248	-13.003098	-6.441540	-4.422029	-1.514033	16.231899	5.256726	10.025656	-0.075150	6.579099	-5.292027	8.706099	-4.550887	-2.065276	5.497078	1.435632	2.265033	-2.141747	3.370126	-0.208294	-11.496884	-8.488053	17.352974	9.100393	-16.474751	4.656987	5.826631	2.152341	-6.096245	-5.554446	3.660083	0.530295	-9.779486	12.355617	-19.377810	-3.251145	12.175427	2.660354	10.308167	0.440215	1.309244	1.859438	-9.359643	
-0.777325	37.548649	-2.082555	4.665943	-9.116060	11.835383	0.220642	8.139668	0.447269	-6.196259	9.850639	16.001133	4.265159	-9.232825	2.885403	-12.965845	-6.449332	-4.398867	-1.523060	16.272673	5.283567	10.020826	-0.121908	6.584305	-5.230257	8.716792	-4.639832	-1.979502	5.424341	1.376150	2.146355	-2.114329	3.503038	-0.210870	-11.614884	-8.660687	17.579779	9.077419	-16.389137	4.702464	5.818730	2.022767	-6.124941	-5.582780	3.670525	0.534758	-9.734429	12.368644	-19.443640	-3.360976	12.109572	2.635218	10.249135	0.543901	1.312105	1.885531	-9.477541	
-0.772620	37.548740	-2.081934	4.637595	-9.119232	11.784668	0.242076	8.137233	0.493974	-6.208292	9.870420	15.999099	4.272037	-9.254744	2.891222	-12.932769	-6.462247	-4.354122	-1.522898	16.286669	5.284407	10.019386	-0.135769	6.585853	-5.198607	8.715797	-4.632180	-1.934901	5.404190	1.312955	2.094120	-2.103587	3.557196	-0.185476	-11.646134	-8.692398	17.618359	9.044791	-16.350634	4.716301	5.776097	1.911672	-6.136514	-5.558624	3.820649	0.535603	-9.728519	12.314961	-19.430946	-3.374676	12.071338	2.624835	10.242557	0.565385	1.331730	1.897511	-9.508104	
-0.771728	37.549969	-2.084835	4.613679	-9.121834	11.741856	0.260145	8.135139	0.533400	-6.209865	9.872998	15.998822	4.272940	-9.257598	2.891992	-12.904865	-6.473177	-4.316356	-1.522492	16.323984	5.286663	10.015572	-0.172739	6.589978	-5.150509	8.726561	-4.703491	-1.899542	5.343579	1.345309	2.065309	-2.191811	3.476427	-0.083917	-11.585928	-8.712126	17.661070	8.945714	-16.305513	4.711162	5.741331	1.880369	-6.152922	-5.553044	3.786716	0.564917	-9.702378	12.317904	-19.471979	-3.444302	12.017249	2.598303	10.190825	0.638795	1.377887	1.961484	-9.595558	
